<mxfile host="app.diagrams.net" modified="2021-06-13T04:49:59.103Z" agent="5.0 (Macintosh; Intel Mac OS X 10_15_7) AppleWebKit/537.36 (KHTML, like Gecko) Chrome/91.0.4472.77 Safari/537.36" etag="0pQ-j6wVV5l7bZaQKiGO" version="14.7.6" type="github">
  <diagram id="p67j5zwVyNwhPDwp9-ur" name="第 1 页">
    <mxGraphModel dx="734" dy="373" grid="1" gridSize="10" guides="1" tooltips="1" connect="1" arrows="1" fold="1" page="1" pageScale="1" pageWidth="1169" pageHeight="827" background="none" math="0" shadow="0">
      <root>
        <mxCell id="0" />
        <mxCell id="1" parent="0" />
        <mxCell id="00kuyijWGxaDaJSgfzJf-21" value="应用层" style="rounded=1;whiteSpace=wrap;html=1;shadow=1;glass=0;comic=0;sketch=0;fontSize=16;fillColor=#cce5ff;strokeColor=#36393d;" vertex="1" parent="1">
          <mxGeometry x="180" y="220" width="120" height="60" as="geometry" />
        </mxCell>
        <mxCell id="00kuyijWGxaDaJSgfzJf-22" value="表示层" style="rounded=1;whiteSpace=wrap;html=1;shadow=1;glass=0;comic=0;sketch=0;fontSize=16;fillColor=#cce5ff;strokeColor=#36393d;" vertex="1" parent="1">
          <mxGeometry x="180" y="280" width="120" height="60" as="geometry" />
        </mxCell>
        <mxCell id="00kuyijWGxaDaJSgfzJf-23" value="会话层" style="rounded=1;whiteSpace=wrap;html=1;shadow=1;glass=0;comic=0;sketch=0;fontSize=16;fillColor=#cce5ff;strokeColor=#36393d;" vertex="1" parent="1">
          <mxGeometry x="180" y="340" width="120" height="60" as="geometry" />
        </mxCell>
        <mxCell id="00kuyijWGxaDaJSgfzJf-24" value="传输层" style="rounded=1;whiteSpace=wrap;html=1;shadow=1;glass=0;comic=0;sketch=0;fontSize=16;fillColor=#ffff88;strokeColor=#36393d;" vertex="1" parent="1">
          <mxGeometry x="180" y="400" width="120" height="60" as="geometry" />
        </mxCell>
        <mxCell id="00kuyijWGxaDaJSgfzJf-25" value="网络层" style="rounded=1;whiteSpace=wrap;html=1;shadow=1;glass=0;comic=0;sketch=0;fontSize=16;fillColor=#cdeb8b;strokeColor=#36393d;" vertex="1" parent="1">
          <mxGeometry x="180" y="460" width="120" height="60" as="geometry" />
        </mxCell>
        <mxCell id="00kuyijWGxaDaJSgfzJf-26" value="数据链路层" style="rounded=1;whiteSpace=wrap;html=1;shadow=1;glass=0;comic=0;sketch=0;fontSize=16;fillColor=#ffcccc;strokeColor=#36393d;" vertex="1" parent="1">
          <mxGeometry x="180" y="520" width="120" height="60" as="geometry" />
        </mxCell>
        <mxCell id="00kuyijWGxaDaJSgfzJf-27" value="物理层" style="rounded=1;whiteSpace=wrap;html=1;shadow=1;glass=0;comic=0;sketch=0;fontSize=16;fillColor=#ffcccc;strokeColor=#36393d;" vertex="1" parent="1">
          <mxGeometry x="180" y="580" width="120" height="60" as="geometry" />
        </mxCell>
        <mxCell id="00kuyijWGxaDaJSgfzJf-28" value="OSI 参考模型" style="text;html=1;align=center;verticalAlign=middle;resizable=0;points=[];autosize=1;strokeColor=none;fontSize=16;" vertex="1" parent="1">
          <mxGeometry x="185" y="190" width="110" height="20" as="geometry" />
        </mxCell>
        <mxCell id="00kuyijWGxaDaJSgfzJf-29" value="应用层" style="rounded=1;whiteSpace=wrap;html=1;shadow=1;glass=0;comic=0;sketch=0;fontSize=16;fillColor=#cce5ff;strokeColor=#36393d;" vertex="1" parent="1">
          <mxGeometry x="410" y="220" width="120" height="180" as="geometry" />
        </mxCell>
        <mxCell id="00kuyijWGxaDaJSgfzJf-32" value="传输层" style="rounded=1;whiteSpace=wrap;html=1;shadow=1;glass=0;comic=0;sketch=0;fontSize=16;fillColor=#ffff88;strokeColor=#36393d;" vertex="1" parent="1">
          <mxGeometry x="410" y="400" width="120" height="60" as="geometry" />
        </mxCell>
        <mxCell id="00kuyijWGxaDaJSgfzJf-33" value="网络层" style="rounded=1;whiteSpace=wrap;html=1;shadow=1;glass=0;comic=0;sketch=0;fontSize=16;fillColor=#cdeb8b;strokeColor=#36393d;" vertex="1" parent="1">
          <mxGeometry x="410" y="460" width="120" height="60" as="geometry" />
        </mxCell>
        <mxCell id="00kuyijWGxaDaJSgfzJf-34" value="网络接口层" style="rounded=1;whiteSpace=wrap;html=1;shadow=1;glass=0;comic=0;sketch=0;fontSize=16;fillColor=#ffcccc;strokeColor=#36393d;" vertex="1" parent="1">
          <mxGeometry x="410" y="520" width="120" height="120" as="geometry" />
        </mxCell>
        <mxCell id="00kuyijWGxaDaJSgfzJf-36" value="TCP/IP 模型" style="text;html=1;align=center;verticalAlign=middle;resizable=0;points=[];autosize=1;strokeColor=none;fontSize=16;" vertex="1" parent="1">
          <mxGeometry x="420" y="190" width="100" height="20" as="geometry" />
        </mxCell>
      </root>
    </mxGraphModel>
  </diagram>
</mxfile>
